# 3ds Max Wavefront OBJ Exporter v0.99 - (c)2007 guruware
# File Created: 24.03.2025 12:51:57

mtllib dado_m.mtl

#
# object Box002
#

v  2.7459 -2.8622 -2.7459
v  2.7459 -2.8622 2.7459
v  -2.7459 -2.8622 2.7459
v  -2.7459 -2.8622 -2.7459
v  2.7459 2.6296 -2.7459
v  -2.7459 2.6296 -2.7459
v  -2.7459 2.6296 2.7459
v  2.7459 2.6296 2.7459
# 8 vertices

vn 0.0000 -1.0000 -0.0000
vn 0.0000 1.0000 -0.0000
vn 0.0000 0.0000 1.0000
vn 1.0000 0.0000 -0.0000
vn 0.0000 0.0000 -1.0000
vn -1.0000 0.0000 -0.0000
# 6 vertex normals

vt 0.7529 0.6569 0.0000
vt 0.7529 0.3334 0.0000
vt 0.9901 0.3334 0.0000
vt 0.9901 0.6569 0.0000
vt 0.7443 0.9904 0.0000
vt 0.5039 0.9904 0.0000
vt 0.5039 0.6674 0.0000
vt 0.7443 0.6674 0.0000
vt 0.4930 0.6608 0.0000
vt 0.2528 0.6608 0.0000
vt 0.2528 0.3391 0.0000
vt 0.4930 0.3391 0.0000
vt 0.7442 0.3341 0.0000
vt 0.5035 0.3341 0.0000
vt 0.5035 0.0151 0.0000
vt 0.7442 0.0151 0.0000
vt 0.2507 0.6529 0.0000
vt 0.0096 0.6529 0.0000
vt 0.0096 0.3391 0.0000
vt 0.2507 0.3391 0.0000
vt 0.7349 0.6620 0.0000
vt 0.5004 0.6620 0.0000
vt 0.5004 0.3612 0.0000
vt 0.7349 0.3612 0.0000
# 24 texture coords

o Box002
g Box002
usemtl Material__30
s 2
f 1/1/1 2/2/1 3/3/1 
f 3/3/1 4/4/1 1/1/1 
s 4
f 5/5/2 6/6/2 7/7/2 
f 7/7/2 8/8/2 5/5/2 
s 8
f 8/9/3 7/10/3 3/11/3 
f 3/11/3 2/12/3 8/9/3 
s 16
f 5/13/4 8/14/4 2/15/4 
f 2/15/4 1/16/4 5/13/4 
s 32
f 6/17/5 5/18/5 1/19/5 
f 1/19/5 4/20/5 6/17/5 
s 64
f 7/21/6 6/22/6 4/23/6 
f 4/23/6 3/24/6 7/21/6 
# 12 faces

