# 3ds Max Wavefront OBJ Exporter v0.99 - (c)2007 guruware
# File Created: 26.03.2025 19:18:29

mtllib dado8caras.mtl

#
# object Hedra001
#

v  0.0029 5.9573 -0.0186
v  5.9573 -0.0029 0.0090
v  0.0089 -0.0186 -5.9573
v  -0.0029 -5.9573 0.0186
v  -5.9573 0.0029 -0.0090
v  -0.0089 0.0186 5.9573
# 6 vertices

vn 0.5785 0.5753 -0.5783
vn -0.5768 -0.5789 -0.5764
vn -0.5779 0.5794 0.5747
vn 0.5762 -0.5758 0.5800
vn -0.5762 0.5758 -0.5800
vn 0.5768 0.5789 0.5764
vn 0.5779 -0.5794 -0.5747
vn -0.5785 -0.5753 0.5783
# 8 vertex normals

vt 0.0000 0.5000 0.0000
vt -0.5000 -0.0000 0.5000
vt 0.5000 -0.0000 0.5000
vt -0.0000 0.5000 0.5000
vt -0.5000 -0.0000 -0.0000
vt 0.0000 -0.5000 0.5000
vt 0.5000 0.0000 -0.5000
vt -0.5000 0.0000 -0.5000
vt 0.0000 -0.5000 -0.5000
vt -0.0000 0.5000 -0.5000
vt 0.5000 0.0000 0.0000
vt -0.0000 -0.5000 -0.0000
# 12 texture coords

o Hedra001
g Hedra001
usemtl wire_216226162
s off
f 1/1/1 2/2/1 3/3/1 
f 3/4/2 4/5/2 5/6/2 
f 5/7/3 6/8/3 1/1/3 
f 6/9/4 4/5/4 2/10/4 
f 3/4/5 5/6/5 1/11/5 
f 6/9/6 2/10/6 1/11/6 
f 2/2/7 4/12/7 3/3/7 
f 6/8/8 5/7/8 4/12/8 
# 8 faces

