# 3ds Max Wavefront OBJ Exporter v0.99 - (c)2007 guruware
# File Created: 25.04.2025 16:57:47

mtllib letrero.mtl

#
# object Box001
#

v  -0.0324 -0.2813 0.6631
v  -0.0324 0.2914 0.6631
v  -0.0324 0.2914 -0.6108
v  -0.0324 -0.2813 -0.6108
v  0.0472 -0.2813 0.6631
v  0.0472 -0.2813 -0.6108
v  0.0472 0.2914 -0.6108
v  0.0472 0.2914 0.6631
# 8 vertices

vn -1.0000 0.0000 -0.0000
vn 1.0000 0.0000 -0.0000
vn 0.0000 0.0000 1.0000
vn 0.0000 1.0000 -0.0000
vn 0.0000 0.0000 -1.0000
vn 0.0000 -1.0000 -0.0000
# 6 vertex normals

vt 0.5372 0.4828 0.0000
vt 0.5372 0.4936 0.0000
vt 0.4853 0.4936 0.0000
vt 0.4853 0.4828 0.0000
vt -0.0068 0.8822 0.0000
vt 0.2155 0.8822 0.0000
vt 0.2155 1.0025 0.0000
vt -0.0068 1.0025 0.0000
vt 0.5446 0.4828 0.0000
vt 0.5478 0.4828 0.0000
vt 0.5478 0.4936 0.0000
vt 0.5446 0.4936 0.0000
vt 0.5411 0.4828 0.0000
vt 0.5443 0.4828 0.0000
vt 0.5362 0.5139 0.0000
vt 0.5255 0.5139 0.0000
vt 0.5478 0.5047 0.0000
vt 0.5446 0.5047 0.0000
vt 0.5446 0.4939 0.0000
vt 0.5478 0.4939 0.0000
vt 0.5375 0.4828 0.0000
vt 0.5408 0.4828 0.0000
vt 0.5246 0.5139 0.0000
vt 0.5139 0.5139 0.0000
# 24 texture coords

o Box001
g Box001
usemtl Material__26
s 2
f 1/1/1 2/2/1 3/3/1 
f 3/3/1 4/4/1 1/1/1 
s 4
f 5/5/2 6/6/2 7/7/2 
f 7/7/2 8/8/2 5/5/2 
s 8
f 1/9/3 5/10/3 8/11/3 
f 8/11/3 2/12/3 1/9/3 
s 16
f 2/13/4 8/14/4 7/15/4 
f 7/15/4 3/16/4 2/13/4 
s 32
f 3/17/5 7/18/5 6/19/5 
f 6/19/5 4/20/5 3/17/5 
s 64
f 4/21/6 6/22/6 5/23/6 
f 5/23/6 1/24/6 4/21/6 
# 12 faces

