# 3ds Max Wavefront OBJ Exporter v0.99 - (c)2007 guruware
# File Created: 23.04.2025 20:10:43

mtllib PUERTA_ARCO.mtl

#
# object BiFoldDoor001
#

v  -0.2474 3.3937 -0.0328
v  -0.2437 3.3937 -1.4888
v  -0.2462 2.9063 -0.5202
v  -0.2474 0.0000 -0.0328
v  -0.2462 1.4621 -0.5202
v  -0.2437 0.0000 -1.4888
v  -0.2449 1.4621 -1.0014
v  -0.2449 2.9063 -1.0014
v  0.0000 3.3937 -1.4882
v  -0.0025 2.9063 -0.5196
v  -0.0012 2.9063 -1.0008
v  0.0000 0.0000 -1.4882
v  -0.0012 1.4621 -1.0008
v  -0.0025 1.4621 -0.5196
v  -0.0037 3.3937 -0.0322
v  -0.0037 0.0000 -0.0322
v  -0.2511 3.3937 1.4231
v  -0.2486 2.9063 0.4545
v  -0.2498 2.9063 0.9358
v  -0.2511 0.0000 1.4231
v  -0.2498 1.4621 0.9358
v  -0.2486 1.4621 0.4545
v  -0.0074 3.3937 1.4238
v  -0.0049 2.9063 0.4552
v  -0.0049 1.4621 0.4552
v  -0.0074 0.0000 1.4238
v  -0.0062 1.4621 0.9364
v  -0.0062 2.9063 0.9364
v  -0.1395 2.9063 -0.5199
v  -0.1383 2.9063 -1.0012
v  -0.1383 1.4621 -1.0012
v  -0.1395 1.4621 -0.5199
v  -0.1432 1.4621 0.9360
v  -0.1432 2.9063 0.9360
v  -0.1420 2.9063 0.4548
v  -0.1420 1.4621 0.4548
v  -0.1079 1.4621 -1.0011
v  -0.1079 2.9063 -1.0011
v  -0.1091 2.9063 -0.5199
v  -0.1091 1.4621 -0.5199
v  -0.1115 2.9063 0.4549
v  -0.1128 2.9063 0.9361
v  -0.1128 1.4621 0.9361
v  -0.1115 1.4621 0.4549
v  -0.6668 0.0000 -1.7336
v  0.1225 0.0000 -1.7316
v  0.1218 0.0000 -1.4879
v  -0.6675 0.0000 -1.4899
v  -0.6675 3.3937 -1.4899
v  -0.6668 3.3937 -1.7336
v  0.1218 3.3937 -1.4879
v  0.1225 3.3937 -1.7316
v  -0.6748 0.0000 1.4221
v  0.1144 0.0000 1.4241
v  0.1138 0.0000 1.6678
v  -0.6755 0.0000 1.6658
v  -0.6755 3.3937 1.6658
v  -0.6748 3.3937 1.4221
v  0.1138 3.3937 1.6678
v  0.1144 3.3937 1.4241
v  -0.6755 3.6374 1.6658
v  -0.6668 3.6374 -1.7336
v  0.1138 3.6374 1.6678
v  0.1225 3.6374 -1.7316
# 64 vertices

vn -1.0000 0.0000 -0.0025
vn 1.0000 0.0000 0.0025
vn 0.0025 0.0000 -1.0000
vn -0.0025 0.0000 1.0000
vn 0.0000 -1.0000 -0.0000
vn 0.0000 1.0000 -0.0000
# 6 vertex normals

vt 0.0000 0.0000 0.0000
# 1 texture coords

o BiFoldDoor001
g BiFoldDoor001
usemtl PUERTA_ARCO_PUERTA_ARCO_wire_255255255
s off
f 1/1/1 2/1/1 3/1/1 
f 4/1/1 1/1/1 3/1/1 
f 4/1/1 3/1/1 5/1/1 
f 6/1/1 4/1/1 5/1/1 
f 6/1/1 5/1/1 7/1/1 
f 6/1/1 7/1/1 8/1/1 
f 8/1/1 3/1/1 2/1/1 
f 6/1/1 8/1/1 2/1/1 
f 9/1/2 10/1/2 11/1/2 
f 12/1/2 9/1/2 11/1/2 
f 12/1/2 11/1/2 13/1/2 
f 12/1/2 13/1/2 14/1/2 
f 10/1/2 9/1/2 15/1/2 
f 10/1/2 15/1/2 16/1/2 
f 14/1/2 10/1/2 16/1/2 
f 12/1/2 14/1/2 16/1/2 
f 17/1/1 18/1/1 19/1/1 
f 20/1/1 17/1/1 19/1/1 
f 20/1/1 19/1/1 21/1/1 
f 20/1/1 21/1/1 22/1/1 
f 18/1/1 17/1/1 1/1/1 
f 18/1/1 1/1/1 4/1/1 
f 22/1/1 18/1/1 4/1/1 
f 20/1/1 22/1/1 4/1/1 
f 15/1/2 23/1/2 24/1/2 
f 16/1/2 15/1/2 24/1/2 
f 16/1/2 24/1/2 25/1/2 
f 26/1/2 16/1/2 25/1/2 
f 26/1/2 25/1/2 27/1/2 
f 26/1/2 27/1/2 28/1/2 
f 28/1/2 24/1/2 23/1/2 
f 26/1/2 28/1/2 23/1/2 
f 2/1/3 9/1/3 12/1/3 
f 12/1/3 6/1/3 2/1/3 
f 26/1/4 23/1/4 17/1/4 
f 17/1/4 20/1/4 26/1/4 
f 11/1/4 8/1/4 7/1/4 
f 7/1/4 13/1/4 11/1/4 
f 21/1/3 19/1/3 28/1/3 
f 28/1/3 27/1/3 21/1/3 
f 15/1/4 1/1/4 4/1/4 
f 4/1/4 16/1/4 15/1/4 
f 4/1/3 1/1/3 15/1/3 
f 15/1/3 16/1/3 4/1/3 
f 10/1/3 14/1/3 5/1/3 
f 5/1/3 3/1/3 10/1/3 
f 22/1/4 25/1/4 24/1/4 
f 24/1/4 18/1/4 22/1/4 
f 16/1/5 4/1/5 6/1/5 
f 6/1/5 12/1/5 16/1/5 
f 20/1/5 4/1/5 16/1/5 
f 16/1/5 26/1/5 20/1/5 
f 14/1/6 13/1/6 7/1/6 
f 7/1/6 5/1/6 14/1/6 
f 21/1/6 27/1/6 25/1/6 
f 25/1/6 22/1/6 21/1/6 
f 15/1/6 9/1/6 2/1/6 
f 2/1/6 1/1/6 15/1/6 
f 17/1/6 23/1/6 15/1/6 
f 15/1/6 1/1/6 17/1/6 
f 10/1/5 3/1/5 8/1/5 
f 8/1/5 11/1/5 10/1/5 
f 19/1/5 18/1/5 24/1/5 
f 24/1/5 28/1/5 19/1/5 
f 29/1/1 30/1/1 31/1/1 
f 31/1/1 32/1/1 29/1/1 
f 33/1/1 34/1/1 35/1/1 
f 35/1/1 36/1/1 33/1/1 
f 37/1/2 38/1/2 39/1/2 
f 39/1/2 40/1/2 37/1/2 
f 41/1/2 42/1/2 43/1/2 
f 43/1/2 44/1/2 41/1/2 
f 38/1/3 37/1/3 31/1/3 
f 31/1/3 30/1/3 38/1/3 
f 32/1/4 40/1/4 39/1/4 
f 39/1/4 29/1/4 32/1/4 
f 39/1/6 38/1/6 30/1/6 
f 30/1/6 29/1/6 39/1/6 
f 31/1/5 37/1/5 40/1/5 
f 40/1/5 32/1/5 31/1/5 
f 33/1/4 43/1/4 42/1/4 
f 42/1/4 34/1/4 33/1/4 
f 41/1/3 44/1/3 36/1/3 
f 36/1/3 35/1/3 41/1/3 
f 34/1/6 42/1/6 41/1/6 
f 41/1/6 35/1/6 34/1/6 
f 44/1/5 43/1/5 33/1/5 
f 33/1/5 36/1/5 44/1/5 
f 45/1/5 46/1/5 47/1/5 
f 47/1/5 48/1/5 45/1/5 
f 49/1/1 50/1/1 45/1/1 
f 45/1/1 48/1/1 49/1/1 
f 51/1/4 49/1/4 48/1/4 
f 48/1/4 47/1/4 51/1/4 
f 52/1/2 51/1/2 47/1/2 
f 47/1/2 46/1/2 52/1/2 
f 50/1/3 52/1/3 46/1/3 
f 46/1/3 45/1/3 50/1/3 
f 53/1/5 54/1/5 55/1/5 
f 55/1/5 56/1/5 53/1/5 
f 57/1/1 58/1/1 53/1/1 
f 53/1/1 56/1/1 57/1/1 
f 59/1/4 57/1/4 56/1/4 
f 56/1/4 55/1/4 59/1/4 
f 60/1/2 59/1/2 55/1/2 
f 55/1/2 54/1/2 60/1/2 
f 58/1/3 60/1/3 54/1/3 
f 54/1/3 53/1/3 58/1/3 
f 61/1/1 62/1/1 50/1/1 
f 50/1/1 57/1/1 61/1/1 
f 63/1/6 64/1/6 62/1/6 
f 62/1/6 61/1/6 63/1/6 
f 63/1/2 59/1/2 52/1/2 
f 52/1/2 64/1/2 63/1/2 
f 59/1/5 57/1/5 50/1/5 
f 50/1/5 52/1/5 59/1/5 
f 64/1/3 52/1/3 50/1/3 
f 50/1/3 62/1/3 64/1/3 
f 59/1/4 63/1/4 61/1/4 
f 61/1/4 57/1/4 59/1/4 
# 120 faces

#
# object Arc001
#

v  -0.0305 3.6274 1.6575
v  -0.0305 3.4263 1.6622
v  0.0000 3.4264 1.6727
v  0.0000 3.6282 1.6680
v  -0.0528 3.6252 1.6289
v  -0.0528 3.4259 1.6335
v  -0.0609 3.6223 1.5898
v  -0.0609 3.4253 1.5943
v  -0.0528 3.6193 1.5506
v  -0.0528 3.4248 1.5551
v  -0.0305 3.6171 1.5220
v  -0.0305 3.4244 1.5264
v  0.0000 3.6164 1.5115
v  0.0000 3.4242 1.5159
v  0.0305 3.6171 1.5220
v  0.0305 3.4244 1.5264
v  0.0528 3.6193 1.5506
v  0.0528 3.4248 1.5551
v  0.0609 3.6223 1.5898
v  0.0609 3.4253 1.5943
v  0.0528 3.6252 1.6289
v  0.0528 3.4259 1.6335
v  0.0305 3.6274 1.6575
v  0.0305 3.4263 1.6622
v  -0.0305 3.8265 1.6120
v  0.0000 3.8286 1.6222
v  -0.0528 3.8209 1.5842
v  -0.0609 3.8132 1.5461
v  -0.0528 3.8056 1.5081
v  -0.0305 3.8000 1.4802
v  0.0000 3.7979 1.4700
v  0.0305 3.8000 1.4802
v  0.0528 3.8056 1.5081
v  0.0609 3.8132 1.5461
v  0.0528 3.8209 1.5842
v  0.0305 3.8265 1.6120
v  -0.0305 4.0162 1.5281
v  0.0000 4.0194 1.5377
v  -0.0528 4.0073 1.5016
v  -0.0609 3.9951 1.4656
v  -0.0528 3.9830 1.4295
v  -0.0305 3.9741 1.4031
v  0.0000 3.9708 1.3934
v  0.0305 3.9741 1.4031
v  0.0528 3.9830 1.4295
v  0.0609 3.9951 1.4656
v  0.0528 4.0073 1.5016
v  0.0305 4.0162 1.5281
v  -0.0305 4.1930 1.4078
v  0.0000 4.1974 1.4167
v  -0.0528 4.1810 1.3835
v  -0.0609 4.1647 1.3502
v  -0.0528 4.1484 1.3170
v  -0.0305 4.1365 1.2927
v  0.0000 4.1321 1.2838
v  0.0305 4.1365 1.2927
v  0.0528 4.1484 1.3170
v  0.0609 4.1647 1.3502
v  0.0528 4.1810 1.3835
v  0.0305 4.1930 1.4078
v  -0.0305 4.3538 1.2535
v  0.0000 4.3591 1.2614
v  -0.0528 4.3390 1.2318
v  -0.0609 4.3189 1.2023
v  -0.0528 4.2988 1.1727
v  -0.0305 4.2840 1.1510
v  0.0000 4.2787 1.1431
v  0.0305 4.2840 1.1510
v  0.0528 4.2988 1.1727
v  0.0609 4.3189 1.2023
v  0.0528 4.3390 1.2318
v  0.0305 4.3538 1.2535
v  -0.0305 4.4951 1.0674
v  0.0000 4.5014 1.0742
v  -0.0528 4.4780 1.0490
v  -0.0609 4.4545 1.0238
v  -0.0528 4.4310 0.9986
v  -0.0305 4.4138 0.9802
v  0.0000 4.4076 0.9734
v  0.0305 4.4138 0.9802
v  0.0528 4.4310 0.9986
v  0.0609 4.4545 1.0238
v  0.0528 4.4780 1.0490
v  0.0305 4.4951 1.0674
v  -0.0305 4.6138 0.8518
v  0.0000 4.6208 0.8572
v  -0.0528 4.5946 0.8371
v  -0.0609 4.5683 0.8170
v  -0.0528 4.5421 0.7969
v  -0.0305 4.5228 0.7822
v  0.0000 4.5158 0.7768
v  0.0305 4.5228 0.7822
v  0.0528 4.5421 0.7969
v  0.0609 4.5683 0.8170
v  0.0528 4.5946 0.8371
v  0.0305 4.6138 0.8518
v  -0.0305 4.7045 0.6148
v  0.0000 4.7121 0.6187
v  -0.0528 4.6837 0.6042
v  -0.0609 4.6553 0.5897
v  -0.0528 4.6269 0.5751
v  -0.0305 4.6062 0.5645
v  0.0000 4.5986 0.5606
v  0.0305 4.6062 0.5645
v  0.0528 4.6269 0.5751
v  0.0609 4.6553 0.5897
v  0.0528 4.6837 0.6042
v  0.0305 4.7045 0.6148
v  -0.0305 4.7643 0.3662
v  0.0000 4.7722 0.3685
v  -0.0528 4.7424 0.3599
v  -0.0609 4.7126 0.3512
v  -0.0528 4.6828 0.3426
v  -0.0305 4.6610 0.3363
v  0.0000 4.6530 0.3339
v  0.0305 4.6610 0.3363
v  0.0528 4.6828 0.3426
v  0.0609 4.7126 0.3512
v  0.0528 4.7424 0.3599
v  0.0305 4.7643 0.3662
v  -0.0305 4.7930 0.1109
v  0.0000 4.8012 0.1115
v  -0.0528 4.7707 0.1089
v  -0.0609 4.7402 0.1063
v  -0.0528 4.7097 0.1037
v  -0.0305 4.6874 0.1018
v  0.0000 4.6793 0.1011
v  0.0305 4.6874 0.1018
v  0.0528 4.7097 0.1037
v  0.0609 4.7402 0.1063
v  0.0528 4.7707 0.1089
v  0.0305 4.7930 0.1109
v  -0.0305 4.7909 -0.1465
v  0.0000 4.7990 -0.1474
v  -0.0528 4.7686 -0.1439
v  -0.0609 4.7382 -0.1405
v  -0.0528 4.7077 -0.1370
v  -0.0305 4.6855 -0.1345
v  0.0000 4.6773 -0.1336
v  0.0305 4.6855 -0.1345
v  0.0528 4.7077 -0.1370
v  0.0609 4.7382 -0.1405
v  0.0528 4.7686 -0.1439
v  0.0305 4.7909 -0.1465
v  -0.0305 4.7579 -0.4010
v  0.0000 4.7658 -0.4035
v  -0.0528 4.7361 -0.3941
v  -0.0609 4.7065 -0.3846
v  -0.0528 4.6768 -0.3751
v  -0.0305 4.6551 -0.3682
v  0.0000 4.6472 -0.3656
v  0.0305 4.6551 -0.3682
v  0.0528 4.6768 -0.3751
v  0.0609 4.7065 -0.3846
v  0.0528 4.7361 -0.3941
v  0.0305 4.7579 -0.4010
v  -0.0305 4.6940 -0.6479
v  0.0000 4.7015 -0.6520
v  -0.0528 4.6734 -0.6367
v  -0.0609 4.6452 -0.6214
v  -0.0528 4.6171 -0.6061
v  -0.0305 4.5965 -0.5949
v  0.0000 4.5890 -0.5908
v  0.0305 4.5965 -0.5949
v  0.0528 4.6171 -0.6061
v  0.0609 4.6452 -0.6214
v  0.0528 4.6734 -0.6367
v  0.0305 4.6940 -0.6479
v  -0.0305 4.5993 -0.8823
v  0.0000 4.6063 -0.8879
v  -0.0528 4.5804 -0.8671
v  -0.0609 4.5544 -0.8463
v  -0.0528 4.5285 -0.8254
v  -0.0305 4.5096 -0.8102
v  0.0000 4.5026 -0.8046
v  0.0305 4.5096 -0.8102
v  0.0528 4.5285 -0.8254
v  0.0609 4.5544 -0.8463
v  0.0528 4.5804 -0.8671
v  0.0305 4.5993 -0.8823
v  -0.0305 4.4771 -1.0946
v  0.0000 4.4833 -1.1015
v  -0.0528 4.4602 -1.0757
v  -0.0609 4.4372 -1.0499
v  -0.0528 4.4142 -1.0240
v  -0.0305 4.3973 -1.0051
v  0.0000 4.3911 -0.9982
v  0.0305 4.3973 -1.0051
v  0.0528 4.4142 -1.0240
v  0.0609 4.4372 -1.0499
v  0.0528 4.4602 -1.0757
v  0.0305 4.4771 -1.0946
v  -0.0305 4.3327 -1.2767
v  0.0000 4.3379 -1.2848
v  -0.0528 4.3183 -1.2547
v  -0.0609 4.2987 -1.2245
v  -0.0528 4.2790 -1.1944
v  -0.0305 4.2647 -1.1724
v  0.0000 4.2594 -1.1643
v  0.0305 4.2647 -1.1724
v  0.0528 4.2790 -1.1944
v  0.0609 4.2987 -1.2245
v  0.0528 4.3183 -1.2547
v  0.0305 4.3327 -1.2767
v  -0.0305 4.1694 -1.4266
v  0.0000 4.1736 -1.4356
v  -0.0528 4.1578 -1.4019
v  -0.0609 4.1421 -1.3682
v  -0.0528 4.1263 -1.3346
v  -0.0305 4.1147 -1.3099
v  0.0000 4.1105 -1.3009
v  0.0305 4.1147 -1.3099
v  0.0528 4.1263 -1.3346
v  0.0609 4.1421 -1.3682
v  0.0528 4.1578 -1.4019
v  0.0305 4.1694 -1.4266
v  -0.0305 3.9906 -1.5419
v  0.0000 3.9936 -1.5517
v  -0.0528 3.9821 -1.5153
v  -0.0609 3.9706 -1.4789
v  -0.0528 3.9590 -1.4425
v  -0.0305 3.9506 -1.4158
v  0.0000 3.9475 -1.4061
v  0.0305 3.9506 -1.4158
v  0.0528 3.9590 -1.4425
v  0.0609 3.9706 -1.4789
v  0.0528 3.9821 -1.5153
v  0.0305 3.9906 -1.5419
v  -0.0305 3.7996 -1.6206
v  0.0000 3.8014 -1.6309
v  -0.0528 3.7944 -1.5926
v  -0.0609 3.7874 -1.5544
v  -0.0528 3.7804 -1.5161
v  -0.0305 3.7752 -1.4881
v  0.0000 3.7733 -1.4779
v  0.0305 3.7752 -1.4881
v  0.0528 3.7804 -1.5161
v  0.0609 3.7874 -1.5544
v  0.0528 3.7944 -1.5926
v  0.0305 3.7996 -1.6206
v  -0.0305 3.5997 -1.6606
v  0.0000 3.6003 -1.6711
v  -0.0528 3.5980 -1.6319
v  -0.0609 3.5957 -1.5927
v  -0.0528 3.5934 -1.5535
v  -0.0305 3.5917 -1.5248
v  0.0000 3.5911 -1.5143
v  0.0305 3.5917 -1.5248
v  0.0528 3.5934 -1.5535
v  0.0609 3.5957 -1.5927
v  0.0528 3.5980 -1.6319
v  0.0305 3.5997 -1.6606
v  -0.0305 3.3986 -1.6597
v  0.0000 3.3985 -1.6702
v  -0.0528 3.3987 -1.6310
v  -0.0609 3.3988 -1.5918
v  -0.0528 3.3989 -1.5526
v  -0.0305 3.3989 -1.5239
v  0.0000 3.3990 -1.5134
v  0.0305 3.3989 -1.5239
v  0.0528 3.3989 -1.5526
v  0.0609 3.3988 -1.5918
v  0.0528 3.3987 -1.6310
v  0.0305 3.3986 -1.6597
# 264 vertices

vn -0.4955 0.0839 0.8646
vn -0.5000 0.0155 0.8659
vn 0.0000 0.0179 0.9998
vn 0.0000 0.0966 0.9953
vn -0.8610 0.0492 0.5062
vn -0.8660 0.0089 0.4999
vn -0.9999 0.0013 0.0129
vn -1.0000 0.0000 -0.0000
vn -0.8722 -0.0473 -0.4868
vn -0.8660 -0.0089 -0.4999
vn -0.5067 -0.0833 -0.8581
vn -0.5000 -0.0155 -0.8659
vn 0.0000 -0.0966 -0.9953
vn 0.0000 -0.0179 -0.9998
vn 0.5067 -0.0833 -0.8581
vn 0.5000 -0.0155 -0.8659
vn 0.8722 -0.0473 -0.4868
vn 0.8660 -0.0089 -0.4999
vn 0.9999 0.0013 0.0129
vn 1.0000 0.0000 -0.0000
vn 0.8610 0.0492 0.5062
vn 0.8660 0.0089 0.4999
vn 0.4955 0.0839 0.8646
vn 0.5000 0.0155 0.8659
vn -0.4955 0.2179 0.8408
vn 0.0000 0.2509 0.9680
vn -0.8611 0.1276 0.4923
vn -0.9999 0.0032 0.0124
vn -0.8721 -0.1228 -0.4736
vn -0.5066 -0.2163 -0.8346
vn 0.0000 -0.2509 -0.9680
vn 0.5066 -0.2163 -0.8346
vn 0.8721 -0.1228 -0.4736
vn 0.9999 0.0032 0.0124
vn 0.8611 0.1276 0.4923
vn 0.4955 0.2179 0.8408
vn -0.4955 0.3454 0.7970
vn 0.0000 0.3976 0.9176
vn -0.8611 0.2022 0.4665
vn -0.9999 0.0051 0.0117
vn -0.8721 -0.1946 -0.4490
vn -0.5066 -0.3428 -0.7911
vn 0.0000 -0.3976 -0.9176
vn 0.5066 -0.3428 -0.7911
vn 0.8721 -0.1946 -0.4490
vn 0.9999 0.0051 0.0117
vn 0.8611 0.2022 0.4665
vn 0.4955 0.3454 0.7970
vn -0.4955 0.4640 0.7343
vn 0.0000 0.5342 0.8453
vn -0.8611 0.2716 0.4298
vn -0.9999 0.0068 0.0107
vn -0.8721 -0.2614 -0.4137
vn -0.5066 -0.4606 -0.7288
vn 0.0000 -0.5342 -0.8453
vn 0.5066 -0.4606 -0.7288
vn 0.8721 -0.2614 -0.4137
vn 0.9999 0.0068 0.0107
vn 0.8611 0.2716 0.4298
vn 0.4955 0.4640 0.7343
vn -0.4955 0.5720 0.6537
vn 0.0000 0.6585 0.7526
vn -0.8611 0.3349 0.3827
vn -0.9999 0.0084 0.0096
vn -0.8721 -0.3222 -0.3682
vn -0.5066 -0.5678 -0.6488
vn 0.0000 -0.6585 -0.7526
vn 0.5066 -0.5678 -0.6488
vn 0.8721 -0.3222 -0.3682
vn 0.9999 0.0084 0.0096
vn 0.8611 0.3349 0.3827
vn 0.4955 0.5720 0.6537
vn -0.4955 0.6671 0.5563
vn 0.0000 0.7680 0.6405
vn -0.8610 0.3906 0.3257
vn -0.9999 0.0100 0.0083
vn -0.8722 -0.3756 -0.3133
vn -0.5067 -0.6621 -0.5521
vn 0.0000 -0.7680 -0.6405
vn 0.5067 -0.6621 -0.5521
vn 0.8722 -0.3756 -0.3133
vn 0.9999 0.0100 0.0083
vn 0.8610 0.3906 0.3257
vn 0.4955 0.6671 0.5563
vn -0.4954 0.7464 0.4443
vn 0.0000 0.8593 0.5115
vn -0.8610 0.4371 0.2602
vn -0.9999 0.0112 0.0067
vn -0.8723 -0.4202 -0.2501
vn -0.5068 -0.7408 -0.4409
vn 0.0000 -0.8593 -0.5115
vn 0.5068 -0.7408 -0.4409
vn 0.8723 -0.4202 -0.2501
vn 0.9999 0.0112 0.0067
vn 0.8610 0.4371 0.2602
vn 0.4954 0.7464 0.4443
vn -0.4955 0.8071 0.3212
vn 0.0000 0.9291 0.3697
vn -0.8610 0.4726 0.1881
vn -0.9999 0.0120 0.0048
vn -0.8722 -0.4545 -0.1808
vn -0.5067 -0.8010 -0.3187
vn 0.0000 -0.9291 -0.3697
vn 0.5067 -0.8010 -0.3187
vn 0.8722 -0.4545 -0.1808
vn 0.9999 0.0120 0.0048
vn 0.8610 0.4726 0.1881
vn 0.4955 0.8071 0.3212
vn -0.4955 0.8473 0.1912
vn 0.0000 0.9755 0.2201
vn -0.8611 0.4961 0.1119
vn -0.9999 0.0125 0.0028
vn -0.8721 -0.4773 -0.1077
vn -0.5066 -0.8410 -0.1897
vn 0.0000 -0.9755 -0.2201
vn 0.5066 -0.8410 -0.1897
vn 0.8721 -0.4773 -0.1077
vn 0.9999 0.0125 0.0028
vn 0.8611 0.4961 0.1119
vn 0.4955 0.8473 0.1912
vn -0.4955 0.8667 0.0578
vn 0.0000 0.9978 0.0666
vn -0.8611 0.5073 0.0338
vn -0.9999 0.0127 0.0008
vn -0.8721 -0.4883 -0.0326
vn -0.5066 -0.8603 -0.0574
vn 0.0000 -0.9978 -0.0666
vn 0.5066 -0.8603 -0.0574
vn 0.8721 -0.4883 -0.0326
vn 0.9999 0.0127 0.0008
vn 0.8611 0.5073 0.0338
vn 0.4955 0.8667 0.0578
vn -0.4955 0.8652 -0.0764
vn 0.0000 0.9961 -0.0880
vn -0.8611 0.5065 -0.0447
vn -0.9999 0.0127 -0.0011
vn -0.8721 -0.4875 0.0430
vn -0.5066 -0.8588 0.0758
vn 0.0000 -0.9961 0.0880
vn 0.5066 -0.8588 0.0758
vn 0.8721 -0.4875 0.0430
vn 0.9999 0.0127 -0.0011
vn 0.8611 0.5065 -0.0447
vn 0.4955 0.8652 -0.0764
vn -0.4955 0.8430 -0.2093
vn 0.0000 0.9705 -0.2410
vn -0.8611 0.4935 -0.1225
vn -0.9999 0.0124 -0.0031
vn -0.8721 -0.4748 0.1179
vn -0.5066 -0.8368 0.2077
vn 0.0000 -0.9705 0.2410
vn 0.5066 -0.8368 0.2077
vn 0.8721 -0.4748 0.1179
vn 0.9999 0.0124 -0.0031
vn 0.8611 0.4935 -0.1225
vn 0.4955 0.8430 -0.2093
vn -0.4955 0.8000 -0.3384
vn 0.0000 0.9210 -0.3896
vn -0.8610 0.4684 -0.1981
vn -0.9999 0.0119 -0.0050
vn -0.8722 -0.4505 0.1906
vn -0.5067 -0.7940 0.3359
vn 0.0000 -0.9210 0.3896
vn 0.5067 -0.7940 0.3359
vn 0.8722 -0.4505 0.1906
vn 0.9999 0.0119 -0.0050
vn 0.8610 0.4684 -0.1981
vn 0.4955 0.8000 -0.3384
vn -0.4954 0.7367 -0.4602
vn 0.0000 0.8481 -0.5298
vn -0.8610 0.4314 -0.2695
vn -0.9999 0.0110 -0.0069
vn -0.8723 -0.4148 0.2591
vn -0.5068 -0.7311 0.4567
vn 0.0000 -0.8481 0.5298
vn 0.5068 -0.7311 0.4567
vn 0.8723 -0.4148 0.2591
vn 0.9999 0.0110 -0.0069
vn 0.8610 0.4314 -0.2695
vn 0.4954 0.7367 -0.4602
vn -0.4955 0.6550 -0.5705
vn 0.0000 0.7541 -0.6568
vn -0.8610 0.3835 -0.3341
vn -0.9999 0.0098 -0.0085
vn -0.8722 -0.3688 0.3212
vn -0.5067 -0.6501 0.5662
vn 0.0000 -0.7541 0.6568
vn 0.5067 -0.6501 0.5662
vn 0.8722 -0.3688 0.3212
vn 0.9999 0.0098 -0.0085
vn 0.8610 0.3835 -0.3341
vn 0.4955 0.6550 -0.5705
vn -0.4955 0.5578 -0.6658
vn 0.0000 0.6422 -0.7665
vn -0.8611 0.3266 -0.3898
vn -0.9999 0.0082 -0.0098
vn -0.8721 -0.3142 0.3750
vn -0.5066 -0.5537 0.6609
vn 0.0000 -0.6422 0.7665
vn 0.5066 -0.5537 0.6609
vn 0.8721 -0.3142 0.3750
vn 0.9999 0.0082 -0.0098
vn 0.8611 0.3266 -0.3898
vn 0.4955 0.5578 -0.6658
vn -0.4955 0.4482 -0.7440
vn 0.0000 0.5160 -0.8566
vn -0.8611 0.2623 -0.4356
vn -0.9999 0.0066 -0.0109
vn -0.8721 -0.2525 0.4192
vn -0.5066 -0.4449 0.7386
vn 0.0000 -0.5160 0.8566
vn 0.5066 -0.4449 0.7386
vn 0.8721 -0.2525 0.4192
vn 0.9999 0.0066 -0.0109
vn 0.8611 0.2623 -0.4356
vn 0.4955 0.4482 -0.7440
vn -0.4955 0.3282 -0.8042
vn 0.0000 0.3778 -0.9259
vn -0.8611 0.1921 -0.4708
vn -0.9999 0.0048 -0.0118
vn -0.8721 -0.1849 0.4531
vn -0.5066 -0.3258 0.7983
vn 0.0000 -0.3778 0.9259
vn 0.5066 -0.3258 0.7983
vn 0.8721 -0.1849 0.4531
vn 0.9999 0.0048 -0.0118
vn 0.8611 0.1921 -0.4708
vn 0.4955 0.3282 -0.8042
vn -0.4955 0.1999 -0.8453
vn 0.0000 0.2301 -0.9732
vn -0.8611 0.1170 -0.4949
vn -0.9999 0.0029 -0.0125
vn -0.8721 -0.1126 0.4761
vn -0.5066 -0.1984 0.8390
vn 0.0000 -0.2301 0.9732
vn 0.5066 -0.1984 0.8390
vn 0.8721 -0.1126 0.4761
vn 0.9999 0.0029 -0.0125
vn 0.8611 0.1170 -0.4949
vn 0.4955 0.1999 -0.8453
vn -0.4955 0.0654 -0.8662
vn 0.0000 0.0753 -0.9972
vn -0.8610 0.0383 -0.5072
vn -0.9999 0.0010 -0.0129
vn -0.8722 -0.0368 0.4877
vn -0.5067 -0.0649 0.8597
vn 0.0000 -0.0753 0.9972
vn 0.5067 -0.0649 0.8597
vn 0.8722 -0.0368 0.4877
vn 0.9999 0.0010 -0.0129
vn 0.8610 0.0383 -0.5072
vn 0.4955 0.0654 -0.8662
vn -0.5000 -0.0031 -0.8660
vn 0.0000 -0.0036 -1.0000
vn -0.8660 -0.0018 -0.5000
vn -0.8660 0.0018 0.5000
vn -0.5000 0.0031 0.8660
vn 0.0000 0.0036 1.0000
vn 0.5000 0.0031 0.8660
vn 0.8660 0.0018 0.5000
vn 0.8660 -0.0018 -0.5000
vn 0.5000 -0.0031 -0.8660
vn 0.0000 -0.9998 0.0179
vn 0.0000 -1.0000 0.0036
# 264 vertex normals

vt 0.0000 0.0000 0.0000
# 1 texture coords

o Arc001
g Arc001
usemtl PUERTA_ARCO_PUERTA_ARCO_wire_255255255
s 1
f 65/2/7 66/2/8 67/2/9 
f 67/2/9 68/2/10 65/2/7 
f 69/2/11 70/2/12 66/2/8 
f 66/2/8 65/2/7 69/2/11 
f 71/2/13 72/2/14 70/2/12 
f 70/2/12 69/2/11 71/2/13 
f 73/2/15 74/2/16 72/2/14 
f 72/2/14 71/2/13 73/2/15 
f 75/2/17 76/2/18 74/2/16 
f 74/2/16 73/2/15 75/2/17 
f 77/2/19 78/2/20 76/2/18 
f 76/2/18 75/2/17 77/2/19 
f 79/2/21 80/2/22 78/2/20 
f 78/2/20 77/2/19 79/2/21 
f 81/2/23 82/2/24 80/2/22 
f 80/2/22 79/2/21 81/2/23 
f 83/2/25 84/2/26 82/2/24 
f 82/2/24 81/2/23 83/2/25 
f 85/2/27 86/2/28 84/2/26 
f 84/2/26 83/2/25 85/2/27 
f 87/2/29 88/2/30 86/2/28 
f 86/2/28 85/2/27 87/2/29 
f 68/2/10 67/2/9 88/2/30 
f 88/2/30 87/2/29 68/2/10 
f 89/2/31 65/2/7 68/2/10 
f 68/2/10 90/2/32 89/2/31 
f 91/2/33 69/2/11 65/2/7 
f 65/2/7 89/2/31 91/2/33 
f 92/2/34 71/2/13 69/2/11 
f 69/2/11 91/2/33 92/2/34 
f 93/2/35 73/2/15 71/2/13 
f 71/2/13 92/2/34 93/2/35 
f 94/2/36 75/2/17 73/2/15 
f 73/2/15 93/2/35 94/2/36 
f 95/2/37 77/2/19 75/2/17 
f 75/2/17 94/2/36 95/2/37 
f 96/2/38 79/2/21 77/2/19 
f 77/2/19 95/2/37 96/2/38 
f 97/2/39 81/2/23 79/2/21 
f 79/2/21 96/2/38 97/2/39 
f 98/2/40 83/2/25 81/2/23 
f 81/2/23 97/2/39 98/2/40 
f 99/2/41 85/2/27 83/2/25 
f 83/2/25 98/2/40 99/2/41 
f 100/2/42 87/2/29 85/2/27 
f 85/2/27 99/2/41 100/2/42 
f 90/2/32 68/2/10 87/2/29 
f 87/2/29 100/2/42 90/2/32 
f 101/2/43 89/2/31 90/2/32 
f 90/2/32 102/2/44 101/2/43 
f 103/2/45 91/2/33 89/2/31 
f 89/2/31 101/2/43 103/2/45 
f 104/2/46 92/2/34 91/2/33 
f 91/2/33 103/2/45 104/2/46 
f 105/2/47 93/2/35 92/2/34 
f 92/2/34 104/2/46 105/2/47 
f 106/2/48 94/2/36 93/2/35 
f 93/2/35 105/2/47 106/2/48 
f 107/2/49 95/2/37 94/2/36 
f 94/2/36 106/2/48 107/2/49 
f 108/2/50 96/2/38 95/2/37 
f 95/2/37 107/2/49 108/2/50 
f 109/2/51 97/2/39 96/2/38 
f 96/2/38 108/2/50 109/2/51 
f 110/2/52 98/2/40 97/2/39 
f 97/2/39 109/2/51 110/2/52 
f 111/2/53 99/2/41 98/2/40 
f 98/2/40 110/2/52 111/2/53 
f 112/2/54 100/2/42 99/2/41 
f 99/2/41 111/2/53 112/2/54 
f 102/2/44 90/2/32 100/2/42 
f 100/2/42 112/2/54 102/2/44 
f 113/2/55 101/2/43 102/2/44 
f 102/2/44 114/2/56 113/2/55 
f 115/2/57 103/2/45 101/2/43 
f 101/2/43 113/2/55 115/2/57 
f 116/2/58 104/2/46 103/2/45 
f 103/2/45 115/2/57 116/2/58 
f 117/2/59 105/2/47 104/2/46 
f 104/2/46 116/2/58 117/2/59 
f 118/2/60 106/2/48 105/2/47 
f 105/2/47 117/2/59 118/2/60 
f 119/2/61 107/2/49 106/2/48 
f 106/2/48 118/2/60 119/2/61 
f 120/2/62 108/2/50 107/2/49 
f 107/2/49 119/2/61 120/2/62 
f 121/2/63 109/2/51 108/2/50 
f 108/2/50 120/2/62 121/2/63 
f 122/2/64 110/2/52 109/2/51 
f 109/2/51 121/2/63 122/2/64 
f 123/2/65 111/2/53 110/2/52 
f 110/2/52 122/2/64 123/2/65 
f 124/2/66 112/2/54 111/2/53 
f 111/2/53 123/2/65 124/2/66 
f 114/2/56 102/2/44 112/2/54 
f 112/2/54 124/2/66 114/2/56 
f 125/2/67 113/2/55 114/2/56 
f 114/2/56 126/2/68 125/2/67 
f 127/2/69 115/2/57 113/2/55 
f 113/2/55 125/2/67 127/2/69 
f 128/2/70 116/2/58 115/2/57 
f 115/2/57 127/2/69 128/2/70 
f 129/2/71 117/2/59 116/2/58 
f 116/2/58 128/2/70 129/2/71 
f 130/2/72 118/2/60 117/2/59 
f 117/2/59 129/2/71 130/2/72 
f 131/2/73 119/2/61 118/2/60 
f 118/2/60 130/2/72 131/2/73 
f 132/2/74 120/2/62 119/2/61 
f 119/2/61 131/2/73 132/2/74 
f 133/2/75 121/2/63 120/2/62 
f 120/2/62 132/2/74 133/2/75 
f 134/2/76 122/2/64 121/2/63 
f 121/2/63 133/2/75 134/2/76 
f 135/2/77 123/2/65 122/2/64 
f 122/2/64 134/2/76 135/2/77 
f 136/2/78 124/2/66 123/2/65 
f 123/2/65 135/2/77 136/2/78 
f 126/2/68 114/2/56 124/2/66 
f 124/2/66 136/2/78 126/2/68 
f 137/2/79 125/2/67 126/2/68 
f 126/2/68 138/2/80 137/2/79 
f 139/2/81 127/2/69 125/2/67 
f 125/2/67 137/2/79 139/2/81 
f 140/2/82 128/2/70 127/2/69 
f 127/2/69 139/2/81 140/2/82 
f 141/2/83 129/2/71 128/2/70 
f 128/2/70 140/2/82 141/2/83 
f 142/2/84 130/2/72 129/2/71 
f 129/2/71 141/2/83 142/2/84 
f 143/2/85 131/2/73 130/2/72 
f 130/2/72 142/2/84 143/2/85 
f 144/2/86 132/2/74 131/2/73 
f 131/2/73 143/2/85 144/2/86 
f 145/2/87 133/2/75 132/2/74 
f 132/2/74 144/2/86 145/2/87 
f 146/2/88 134/2/76 133/2/75 
f 133/2/75 145/2/87 146/2/88 
f 147/2/89 135/2/77 134/2/76 
f 134/2/76 146/2/88 147/2/89 
f 148/2/90 136/2/78 135/2/77 
f 135/2/77 147/2/89 148/2/90 
f 138/2/80 126/2/68 136/2/78 
f 136/2/78 148/2/90 138/2/80 
f 149/2/91 137/2/79 138/2/80 
f 138/2/80 150/2/92 149/2/91 
f 151/2/93 139/2/81 137/2/79 
f 137/2/79 149/2/91 151/2/93 
f 152/2/94 140/2/82 139/2/81 
f 139/2/81 151/2/93 152/2/94 
f 153/2/95 141/2/83 140/2/82 
f 140/2/82 152/2/94 153/2/95 
f 154/2/96 142/2/84 141/2/83 
f 141/2/83 153/2/95 154/2/96 
f 155/2/97 143/2/85 142/2/84 
f 142/2/84 154/2/96 155/2/97 
f 156/2/98 144/2/86 143/2/85 
f 143/2/85 155/2/97 156/2/98 
f 157/2/99 145/2/87 144/2/86 
f 144/2/86 156/2/98 157/2/99 
f 158/2/100 146/2/88 145/2/87 
f 145/2/87 157/2/99 158/2/100 
f 159/2/101 147/2/89 146/2/88 
f 146/2/88 158/2/100 159/2/101 
f 160/2/102 148/2/90 147/2/89 
f 147/2/89 159/2/101 160/2/102 
f 150/2/92 138/2/80 148/2/90 
f 148/2/90 160/2/102 150/2/92 
f 161/2/103 149/2/91 150/2/92 
f 150/2/92 162/2/104 161/2/103 
f 163/2/105 151/2/93 149/2/91 
f 149/2/91 161/2/103 163/2/105 
f 164/2/106 152/2/94 151/2/93 
f 151/2/93 163/2/105 164/2/106 
f 165/2/107 153/2/95 152/2/94 
f 152/2/94 164/2/106 165/2/107 
f 166/2/108 154/2/96 153/2/95 
f 153/2/95 165/2/107 166/2/108 
f 167/2/109 155/2/97 154/2/96 
f 154/2/96 166/2/108 167/2/109 
f 168/2/110 156/2/98 155/2/97 
f 155/2/97 167/2/109 168/2/110 
f 169/2/111 157/2/99 156/2/98 
f 156/2/98 168/2/110 169/2/111 
f 170/2/112 158/2/100 157/2/99 
f 157/2/99 169/2/111 170/2/112 
f 171/2/113 159/2/101 158/2/100 
f 158/2/100 170/2/112 171/2/113 
f 172/2/114 160/2/102 159/2/101 
f 159/2/101 171/2/113 172/2/114 
f 162/2/104 150/2/92 160/2/102 
f 160/2/102 172/2/114 162/2/104 
f 173/2/115 161/2/103 162/2/104 
f 162/2/104 174/2/116 173/2/115 
f 175/2/117 163/2/105 161/2/103 
f 161/2/103 173/2/115 175/2/117 
f 176/2/118 164/2/106 163/2/105 
f 163/2/105 175/2/117 176/2/118 
f 177/2/119 165/2/107 164/2/106 
f 164/2/106 176/2/118 177/2/119 
f 178/2/120 166/2/108 165/2/107 
f 165/2/107 177/2/119 178/2/120 
f 179/2/121 167/2/109 166/2/108 
f 166/2/108 178/2/120 179/2/121 
f 180/2/122 168/2/110 167/2/109 
f 167/2/109 179/2/121 180/2/122 
f 181/2/123 169/2/111 168/2/110 
f 168/2/110 180/2/122 181/2/123 
f 182/2/124 170/2/112 169/2/111 
f 169/2/111 181/2/123 182/2/124 
f 183/2/125 171/2/113 170/2/112 
f 170/2/112 182/2/124 183/2/125 
f 184/2/126 172/2/114 171/2/113 
f 171/2/113 183/2/125 184/2/126 
f 174/2/116 162/2/104 172/2/114 
f 172/2/114 184/2/126 174/2/116 
f 185/2/127 173/2/115 174/2/116 
f 174/2/116 186/2/128 185/2/127 
f 187/2/129 175/2/117 173/2/115 
f 173/2/115 185/2/127 187/2/129 
f 188/2/130 176/2/118 175/2/117 
f 175/2/117 187/2/129 188/2/130 
f 189/2/131 177/2/119 176/2/118 
f 176/2/118 188/2/130 189/2/131 
f 190/2/132 178/2/120 177/2/119 
f 177/2/119 189/2/131 190/2/132 
f 191/2/133 179/2/121 178/2/120 
f 178/2/120 190/2/132 191/2/133 
f 192/2/134 180/2/122 179/2/121 
f 179/2/121 191/2/133 192/2/134 
f 193/2/135 181/2/123 180/2/122 
f 180/2/122 192/2/134 193/2/135 
f 194/2/136 182/2/124 181/2/123 
f 181/2/123 193/2/135 194/2/136 
f 195/2/137 183/2/125 182/2/124 
f 182/2/124 194/2/136 195/2/137 
f 196/2/138 184/2/126 183/2/125 
f 183/2/125 195/2/137 196/2/138 
f 186/2/128 174/2/116 184/2/126 
f 184/2/126 196/2/138 186/2/128 
f 197/2/139 185/2/127 186/2/128 
f 186/2/128 198/2/140 197/2/139 
f 199/2/141 187/2/129 185/2/127 
f 185/2/127 197/2/139 199/2/141 
f 200/2/142 188/2/130 187/2/129 
f 187/2/129 199/2/141 200/2/142 
f 201/2/143 189/2/131 188/2/130 
f 188/2/130 200/2/142 201/2/143 
f 202/2/144 190/2/132 189/2/131 
f 189/2/131 201/2/143 202/2/144 
f 203/2/145 191/2/133 190/2/132 
f 190/2/132 202/2/144 203/2/145 
f 204/2/146 192/2/134 191/2/133 
f 191/2/133 203/2/145 204/2/146 
f 205/2/147 193/2/135 192/2/134 
f 192/2/134 204/2/146 205/2/147 
f 206/2/148 194/2/136 193/2/135 
f 193/2/135 205/2/147 206/2/148 
f 207/2/149 195/2/137 194/2/136 
f 194/2/136 206/2/148 207/2/149 
f 208/2/150 196/2/138 195/2/137 
f 195/2/137 207/2/149 208/2/150 
f 198/2/140 186/2/128 196/2/138 
f 196/2/138 208/2/150 198/2/140 
f 209/2/151 197/2/139 198/2/140 
f 198/2/140 210/2/152 209/2/151 
f 211/2/153 199/2/141 197/2/139 
f 197/2/139 209/2/151 211/2/153 
f 212/2/154 200/2/142 199/2/141 
f 199/2/141 211/2/153 212/2/154 
f 213/2/155 201/2/143 200/2/142 
f 200/2/142 212/2/154 213/2/155 
f 214/2/156 202/2/144 201/2/143 
f 201/2/143 213/2/155 214/2/156 
f 215/2/157 203/2/145 202/2/144 
f 202/2/144 214/2/156 215/2/157 
f 216/2/158 204/2/146 203/2/145 
f 203/2/145 215/2/157 216/2/158 
f 217/2/159 205/2/147 204/2/146 
f 204/2/146 216/2/158 217/2/159 
f 218/2/160 206/2/148 205/2/147 
f 205/2/147 217/2/159 218/2/160 
f 219/2/161 207/2/149 206/2/148 
f 206/2/148 218/2/160 219/2/161 
f 220/2/162 208/2/150 207/2/149 
f 207/2/149 219/2/161 220/2/162 
f 210/2/152 198/2/140 208/2/150 
f 208/2/150 220/2/162 210/2/152 
f 221/2/163 209/2/151 210/2/152 
f 210/2/152 222/2/164 221/2/163 
f 223/2/165 211/2/153 209/2/151 
f 209/2/151 221/2/163 223/2/165 
f 224/2/166 212/2/154 211/2/153 
f 211/2/153 223/2/165 224/2/166 
f 225/2/167 213/2/155 212/2/154 
f 212/2/154 224/2/166 225/2/167 
f 226/2/168 214/2/156 213/2/155 
f 213/2/155 225/2/167 226/2/168 
f 227/2/169 215/2/157 214/2/156 
f 214/2/156 226/2/168 227/2/169 
f 228/2/170 216/2/158 215/2/157 
f 215/2/157 227/2/169 228/2/170 
f 229/2/171 217/2/159 216/2/158 
f 216/2/158 228/2/170 229/2/171 
f 230/2/172 218/2/160 217/2/159 
f 217/2/159 229/2/171 230/2/172 
f 231/2/173 219/2/161 218/2/160 
f 218/2/160 230/2/172 231/2/173 
f 232/2/174 220/2/162 219/2/161 
f 219/2/161 231/2/173 232/2/174 
f 222/2/164 210/2/152 220/2/162 
f 220/2/162 232/2/174 222/2/164 
f 233/2/175 221/2/163 222/2/164 
f 222/2/164 234/2/176 233/2/175 
f 235/2/177 223/2/165 221/2/163 
f 221/2/163 233/2/175 235/2/177 
f 236/2/178 224/2/166 223/2/165 
f 223/2/165 235/2/177 236/2/178 
f 237/2/179 225/2/167 224/2/166 
f 224/2/166 236/2/178 237/2/179 
f 238/2/180 226/2/168 225/2/167 
f 225/2/167 237/2/179 238/2/180 
f 239/2/181 227/2/169 226/2/168 
f 226/2/168 238/2/180 239/2/181 
f 240/2/182 228/2/170 227/2/169 
f 227/2/169 239/2/181 240/2/182 
f 241/2/183 229/2/171 228/2/170 
f 228/2/170 240/2/182 241/2/183 
f 242/2/184 230/2/172 229/2/171 
f 229/2/171 241/2/183 242/2/184 
f 243/2/185 231/2/173 230/2/172 
f 230/2/172 242/2/184 243/2/185 
f 244/2/186 232/2/174 231/2/173 
f 231/2/173 243/2/185 244/2/186 
f 234/2/176 222/2/164 232/2/174 
f 232/2/174 244/2/186 234/2/176 
f 245/2/187 233/2/175 234/2/176 
f 234/2/176 246/2/188 245/2/187 
f 247/2/189 235/2/177 233/2/175 
f 233/2/175 245/2/187 247/2/189 
f 248/2/190 236/2/178 235/2/177 
f 235/2/177 247/2/189 248/2/190 
f 249/2/191 237/2/179 236/2/178 
f 236/2/178 248/2/190 249/2/191 
f 250/2/192 238/2/180 237/2/179 
f 237/2/179 249/2/191 250/2/192 
f 251/2/193 239/2/181 238/2/180 
f 238/2/180 250/2/192 251/2/193 
f 252/2/194 240/2/182 239/2/181 
f 239/2/181 251/2/193 252/2/194 
f 253/2/195 241/2/183 240/2/182 
f 240/2/182 252/2/194 253/2/195 
f 254/2/196 242/2/184 241/2/183 
f 241/2/183 253/2/195 254/2/196 
f 255/2/197 243/2/185 242/2/184 
f 242/2/184 254/2/196 255/2/197 
f 256/2/198 244/2/186 243/2/185 
f 243/2/185 255/2/197 256/2/198 
f 246/2/188 234/2/176 244/2/186 
f 244/2/186 256/2/198 246/2/188 
f 257/2/199 245/2/187 246/2/188 
f 246/2/188 258/2/200 257/2/199 
f 259/2/201 247/2/189 245/2/187 
f 245/2/187 257/2/199 259/2/201 
f 260/2/202 248/2/190 247/2/189 
f 247/2/189 259/2/201 260/2/202 
f 261/2/203 249/2/191 248/2/190 
f 248/2/190 260/2/202 261/2/203 
f 262/2/204 250/2/192 249/2/191 
f 249/2/191 261/2/203 262/2/204 
f 263/2/205 251/2/193 250/2/192 
f 250/2/192 262/2/204 263/2/205 
f 264/2/206 252/2/194 251/2/193 
f 251/2/193 263/2/205 264/2/206 
f 265/2/207 253/2/195 252/2/194 
f 252/2/194 264/2/206 265/2/207 
f 266/2/208 254/2/196 253/2/195 
f 253/2/195 265/2/207 266/2/208 
f 267/2/209 255/2/197 254/2/196 
f 254/2/196 266/2/208 267/2/209 
f 268/2/210 256/2/198 255/2/197 
f 255/2/197 267/2/209 268/2/210 
f 258/2/200 246/2/188 256/2/198 
f 256/2/198 268/2/210 258/2/200 
f 269/2/211 257/2/199 258/2/200 
f 258/2/200 270/2/212 269/2/211 
f 271/2/213 259/2/201 257/2/199 
f 257/2/199 269/2/211 271/2/213 
f 272/2/214 260/2/202 259/2/201 
f 259/2/201 271/2/213 272/2/214 
f 273/2/215 261/2/203 260/2/202 
f 260/2/202 272/2/214 273/2/215 
f 274/2/216 262/2/204 261/2/203 
f 261/2/203 273/2/215 274/2/216 
f 275/2/217 263/2/205 262/2/204 
f 262/2/204 274/2/216 275/2/217 
f 276/2/218 264/2/206 263/2/205 
f 263/2/205 275/2/217 276/2/218 
f 277/2/219 265/2/207 264/2/206 
f 264/2/206 276/2/218 277/2/219 
f 278/2/220 266/2/208 265/2/207 
f 265/2/207 277/2/219 278/2/220 
f 279/2/221 267/2/209 266/2/208 
f 266/2/208 278/2/220 279/2/221 
f 280/2/222 268/2/210 267/2/209 
f 267/2/209 279/2/221 280/2/222 
f 270/2/212 258/2/200 268/2/210 
f 268/2/210 280/2/222 270/2/212 
f 281/2/223 269/2/211 270/2/212 
f 270/2/212 282/2/224 281/2/223 
f 283/2/225 271/2/213 269/2/211 
f 269/2/211 281/2/223 283/2/225 
f 284/2/226 272/2/214 271/2/213 
f 271/2/213 283/2/225 284/2/226 
f 285/2/227 273/2/215 272/2/214 
f 272/2/214 284/2/226 285/2/227 
f 286/2/228 274/2/216 273/2/215 
f 273/2/215 285/2/227 286/2/228 
f 287/2/229 275/2/217 274/2/216 
f 274/2/216 286/2/228 287/2/229 
f 288/2/230 276/2/218 275/2/217 
f 275/2/217 287/2/229 288/2/230 
f 289/2/231 277/2/219 276/2/218 
f 276/2/218 288/2/230 289/2/231 
f 290/2/232 278/2/220 277/2/219 
f 277/2/219 289/2/231 290/2/232 
f 291/2/233 279/2/221 278/2/220 
f 278/2/220 290/2/232 291/2/233 
f 292/2/234 280/2/222 279/2/221 
f 279/2/221 291/2/233 292/2/234 
f 282/2/224 270/2/212 280/2/222 
f 280/2/222 292/2/234 282/2/224 
f 293/2/235 281/2/223 282/2/224 
f 282/2/224 294/2/236 293/2/235 
f 295/2/237 283/2/225 281/2/223 
f 281/2/223 293/2/235 295/2/237 
f 296/2/238 284/2/226 283/2/225 
f 283/2/225 295/2/237 296/2/238 
f 297/2/239 285/2/227 284/2/226 
f 284/2/226 296/2/238 297/2/239 
f 298/2/240 286/2/228 285/2/227 
f 285/2/227 297/2/239 298/2/240 
f 299/2/241 287/2/229 286/2/228 
f 286/2/228 298/2/240 299/2/241 
f 300/2/242 288/2/230 287/2/229 
f 287/2/229 299/2/241 300/2/242 
f 301/2/243 289/2/231 288/2/230 
f 288/2/230 300/2/242 301/2/243 
f 302/2/244 290/2/232 289/2/231 
f 289/2/231 301/2/243 302/2/244 
f 303/2/245 291/2/233 290/2/232 
f 290/2/232 302/2/244 303/2/245 
f 304/2/246 292/2/234 291/2/233 
f 291/2/233 303/2/245 304/2/246 
f 294/2/236 282/2/224 292/2/234 
f 292/2/234 304/2/246 294/2/236 
f 305/2/247 293/2/235 294/2/236 
f 294/2/236 306/2/248 305/2/247 
f 307/2/249 295/2/237 293/2/235 
f 293/2/235 305/2/247 307/2/249 
f 308/2/250 296/2/238 295/2/237 
f 295/2/237 307/2/249 308/2/250 
f 309/2/251 297/2/239 296/2/238 
f 296/2/238 308/2/250 309/2/251 
f 310/2/252 298/2/240 297/2/239 
f 297/2/239 309/2/251 310/2/252 
f 311/2/253 299/2/241 298/2/240 
f 298/2/240 310/2/252 311/2/253 
f 312/2/254 300/2/242 299/2/241 
f 299/2/241 311/2/253 312/2/254 
f 313/2/255 301/2/243 300/2/242 
f 300/2/242 312/2/254 313/2/255 
f 314/2/256 302/2/244 301/2/243 
f 301/2/243 313/2/255 314/2/256 
f 315/2/257 303/2/245 302/2/244 
f 302/2/244 314/2/256 315/2/257 
f 316/2/258 304/2/246 303/2/245 
f 303/2/245 315/2/257 316/2/258 
f 306/2/248 294/2/236 304/2/246 
f 304/2/246 316/2/258 306/2/248 
f 317/2/259 305/2/247 306/2/248 
f 306/2/248 318/2/260 317/2/259 
f 319/2/261 307/2/249 305/2/247 
f 305/2/247 317/2/259 319/2/261 
f 320/2/14 308/2/250 307/2/249 
f 307/2/249 319/2/261 320/2/14 
f 321/2/262 309/2/251 308/2/250 
f 308/2/250 320/2/14 321/2/262 
f 322/2/263 310/2/252 309/2/251 
f 309/2/251 321/2/262 322/2/263 
f 323/2/264 311/2/253 310/2/252 
f 310/2/252 322/2/263 323/2/264 
f 324/2/265 312/2/254 311/2/253 
f 311/2/253 323/2/264 324/2/265 
f 325/2/266 313/2/255 312/2/254 
f 312/2/254 324/2/265 325/2/266 
f 326/2/26 314/2/256 313/2/255 
f 313/2/255 325/2/266 326/2/26 
f 327/2/267 315/2/257 314/2/256 
f 314/2/256 326/2/26 327/2/267 
f 328/2/268 316/2/258 315/2/257 
f 315/2/257 327/2/267 328/2/268 
f 318/2/260 306/2/248 316/2/258 
f 316/2/258 328/2/268 318/2/260 
s 2
f 86/2/269 88/2/269 67/2/269 
f 84/2/269 86/2/269 67/2/269 
f 82/2/269 84/2/269 67/2/269 
f 80/2/269 82/2/269 67/2/269 
f 78/2/269 80/2/269 67/2/269 
f 76/2/269 78/2/269 67/2/269 
f 74/2/269 76/2/269 67/2/269 
f 72/2/269 74/2/269 67/2/269 
f 70/2/269 72/2/269 67/2/269 
f 66/2/269 70/2/269 67/2/269 
f 319/2/270 317/2/270 318/2/270 
f 318/2/270 328/2/270 327/2/270 
f 318/2/270 327/2/270 326/2/270 
f 318/2/270 326/2/270 325/2/270 
f 318/2/270 325/2/270 324/2/270 
f 318/2/270 324/2/270 323/2/270 
f 318/2/270 323/2/270 322/2/270 
f 318/2/270 322/2/270 321/2/270 
f 318/2/270 321/2/270 320/2/270 
f 319/2/270 318/2/270 320/2/270 
# 524 faces

